<?xml version="1.0" encoding="utf-8"?>
<!-- Generator: Adobe Illustrator 16.0.0, SVG Export Plug-In . SVG Version: 6.00 Build 0)  -->
<!DOCTYPE svg PUBLIC "-//W3C//DTD SVG 1.1//EN" "http://www.w3.org/Graphics/SVG/1.1/DTD/svg11.dtd">
<svg xmlns="http://www.w3.org/2000/svg" xmlns:xlink="http://www.w3.org/1999/xlink" version="1.1" id="Nurse" x="0px" y="0px" width="512" height="512" viewBox="0 0 144.083 144" enable-background="new 0 0 144.083 144" xml:space="preserve">
<path d="M92.018,95.008c-3.063-1.437-5.973-2.802-7.564-4.251l-0.6-3.194c0.924-0.626,1.82-1.331,2.684-2.11  c10.83-1.503,22.887-3.748,23.01-3.771c1.279-0.239,2.26-1.275,2.426-2.566s-0.52-2.542-1.697-3.097  c-10.512-4.952-11.129-14.581-11.781-24.774c-0.209-3.278-0.438-6.661-1.029-9.912l7.596-18.205c0.488-1.17,0.188-2.52-0.75-3.374  c-0.41-0.375-10.34-9.188-32.269-9.188c-22.905,0-32.005,8.915-32.381,9.294c-0.853,0.86-1.104,2.149-0.638,3.267l7.595,18.202  c-0.594,3.252-0.821,6.636-1.031,9.915c-0.652,10.193-1.269,19.821-11.78,24.773c-1.178,0.555-1.863,1.806-1.697,3.097  s1.146,2.327,2.425,2.566c0.124,0.023,12.181,2.268,23.013,3.771c0.931,0.842,1.897,1.596,2.895,2.257l-0.517,2.757  c-1.506,1.558-4.603,3.011-7.864,4.542c-10.038,4.711-25.208,11.829-25.208,35.427c0,1.657,1.343,3,3,3h84.376c1.658,0,3-1.343,3-3  C117.229,106.835,102.057,99.718,92.018,95.008z M72.042,16.565c14.628,0,23.203,4.296,26.568,6.438l-9.299,22.289  c-3.326-0.363-9.918-0.95-17.718-0.95c-7.521,0-13.655,0.567-16.827,0.933l-9.322-22.344C48.605,20.813,56.844,16.565,72.042,16.565  z M32.951,127.435c1.163-17.376,12.474-22.686,21.659-26.995c4.471-2.099,8.331-3.91,10.523-6.854  c0.273-0.366,0.459-0.79,0.543-1.239l1.049-5.592c0.243-1.296-0.389-2.6-1.558-3.211c-1.448-0.758-2.851-1.794-4.168-3.08  c-0.461-0.45-1.055-0.74-1.692-0.826c-5.646-0.766-11.749-1.765-16.345-2.554c7.422-6.844,8.048-16.625,8.613-25.457  c0.008-0.126,0.017-0.246,0.024-0.371c0.394,0.185,0.828,0.286,1.276,0.286c0.148,0,0.299-0.011,0.449-0.034  c0.077-0.012,7.854-1.166,18.268-1.166c10.605,0,19.117,1.159,19.203,1.171c0.59,0.082,1.17-0.025,1.686-0.269  c0.008,0.129,0.018,0.252,0.025,0.383c0.566,8.831,1.193,18.613,8.613,25.458c-4.594,0.789-10.695,1.787-16.338,2.553  c-0.637,0.086-1.23,0.375-1.689,0.823c-1.26,1.226-2.604,2.229-3.994,2.981c-1.148,0.62-1.762,1.91-1.521,3.191l1.146,6.113  c0.096,0.519,0.328,1.003,0.672,1.402c2.254,2.62,5.879,4.321,10.076,6.29c9.186,4.31,20.498,9.618,21.66,26.995H32.951z"/>
<polygon points="68.042,41.022 76.042,41.022 76.042,35.362 81.702,35.362 81.702,27.362 76.042,27.362 76.042,21.702   68.042,21.702 68.042,27.362 62.382,27.362 62.382,35.362 68.042,35.362 "/>
</svg>
